<svg width="0" height="0" class="hidden">
  <symbol xmlns="http://www.w3.org/2000/svg" fill="#5f6368" viewBox="0 -960 960 960" id="photo">
    <path d="M360-400h400L622-580l-92 120-62-80-108 140Zm-40 160q-33 0-56.5-23.5T240-320v-480q0-33 23.5-56.5T320-880h480q33 0 56.5 23.5T880-800v480q0 33-23.5 56.5T800-240H320Zm0-80h480v-480H320v480ZM160-80q-33 0-56.5-23.5T80-160v-560h80v560h560v80H160Zm160-720v480-480Z"></path>
  </symbol>
  <symbol xmlns="http://www.w3.org/2000/svg" fill="#5f6368" viewBox="0 -960 960 960" id="edit">
    <path d="M200-200h57l391-391-57-57-391 391v57Zm-80 80v-170l528-527q12-11 26.5-17t30.5-6q16 0 31 6t26 18l55 56q12 11 17.5 26t5.5 30q0 16-5.5 30.5T817-647L290-120H120Zm640-584-56-56 56 56Zm-141 85-28-29 57 57-29-28Z"></path>
  </symbol>
  <symbol xmlns="http://www.w3.org/2000/svg" fill="#5f6368" viewBox="0 -960 960 960" id="gifts">
    <path d="M160-80v-440H80v-240h208q-5-9-6.5-19t-1.5-21q0-50 35-85t85-35q23 0 43 8.5t37 23.5q17-16 37-24t43-8q50 0 85 35t35 85q0 11-2 20.5t-6 19.5h208v240h-80v440H160Zm400-760q-17 0-28.5 11.5T520-800q0 17 11.5 28.5T560-760q17 0 28.5-11.5T600-800q0-17-11.5-28.5T560-840Zm-200 40q0 17 11.5 28.5T400-760q17 0 28.5-11.5T440-800q0-17-11.5-28.5T400-840q-17 0-28.5 11.5T360-800ZM160-680v80h280v-80H160Zm280 520v-360H240v360h200Zm80 0h200v-360H520v360Zm280-440v-80H520v80h280Z"></path>
  </symbol>
  <symbol xmlns="http://www.w3.org/2000/svg" fill="#5f6368" viewBox="0 -960 960 960" id="notice">
    <path d="M720-440v-80h160v80H720Zm48 280-128-96 48-64 128 96-48 64Zm-80-480-48-64 128-96 48 64-128 96ZM200-200v-160h-40q-33 0-56.5-23.5T80-440v-80q0-33 23.5-56.5T160-600h160l200-120v480L320-360h-40v160h-80Zm240-182v-196l-98 58H160v80h182l98 58Zm120 36v-268q27 24 43.5 58.5T620-480q0 41-16.5 75.5T560-346ZM300-480Z"></path>
  </symbol>
  <symbol xmlns="http://www.w3.org/2000/svg" fill="#5f6368" viewBox="0 -960 960 960" id="search">
    <path d="M784-120 532-372q-30 24-69 38t-83 14q-109 0-184.5-75.5T120-580q0-109 75.5-184.5T380-840q109 0 184.5 75.5T640-580q0 44-14 83t-38 69l252 252-56 56ZM380-400q75 0 127.5-52.5T560-580q0-75-52.5-127.5T380-760q-75 0-127.5 52.5T200-580q0 75 52.5 127.5T380-400Z"></path>
  </symbol>
  <symbol xmlns="http://www.w3.org/2000/svg" fill="#5f6368" viewBox="0 -960 960 960" id="home">
    <path d="M240-200h120v-240h240v240h120v-360L480-740 240-560v360Zm-80 80v-480l320-240 320 240v480H520v-240h-80v240H160Zm320-350Z"></path>
  </symbol>
  <symbol xmlns="http://www.w3.org/2000/svg" fill="#ffffff" viewBox="0 -960 960 960" id="trash">
    <path d="M760-240H200v-560h560v560ZM400-360h160v-40H400v40ZM240-760h480v40H240v-40ZM280-640v360h400V-640H280Z"></path>
  </symbol>
  <symbol xmlns="http://www.w3.org/2000/svg" fill="#5f6368" viewBox="0 0 24 24" id="user-list">
    <path d="M12 12c2.21 0 4-1.79 4-4s-1.79-4-4-4-4 1.79-4 4 1.79 4 4 4zm0 2c-2.67 0-8 1.34-8 4v2h16v-2c0-2.66-5.33-4-8-4z"></path>
  </symbol>
  <symbol xmlns="http://www.w3.org/2000/svg" fill="#5f6368" viewBox="0 0 24 24" id="essay-list">
    <path d="M4 4h16v2H4V4zm0 4h16v2H4V8zm0 4h10v2H4v-2zm0 4h8v2H4v-2z"></path>
  </symbol>
  <symbol xmlns="http://www.w3.org/2000/svg" fill="#5f6368" viewBox="0 0 24 24" id="report-list">
    <path d="M13 3H6c-1.1 0-2 .9-2 2v14c0 1.1.9 2 2 2h12c1.1 0 2-.9 2-2V8l-7-5zm-1 15H8v-2h4v2zm4-4H8v-2h8v2zm0-4H8V8h8v2zm-3-5v4h4l-4-4z"></path>
  </symbol>
  <symbol xmlns="http://www.w3.org/2000/svg" fill="#5f6368" viewBox="0 0 24 24" id="release-list">
    <path d="M12 3v2H4v2h8v2h2V7h8V5h-8V3h-2zm-2 7h2v6h-2v-6zm-4 2h2v4H6v-4zm8 0h2v4h-2v-4zm4-2h2v6h-2v-6z"></path>
  </symbol>
  <symbol xmlns="http://www.w3.org/2000/svg" fill="#5f6368" viewBox="0 0 24 24" id="notice">
    <path d="M11 7h2v2h-2zm0 4h2v6h-2zm-1 9h4v2h-4z"></path>
  </symbol>
  <symbol xmlns="http://www.w3.org/2000/svg" fill="#5f6368" viewBox="0 0 24 24" id="query">
    <path d="M12 2C6.48 2 2 6.48 2 12s4.48 10 10 10 10-4.48 10-10S17.52 2 12 2zm0 18c-4.41 0-8-3.59-8-8s3.59-8 8-8 8 3.59 8 8-3.59 8-8 8zm-1-13h2v2h-2zm0 4h2v6h-2z"></path>
  </symbol>
  <symbol xmlns="http://www.w3.org/2000/svg" fill="#5f6368" viewBox="0 0 24 24" id="manager-list">
    <path d="M12 12c2.21 0 4-1.79 4-4s-1.79-4-4-4-4 1.79-4 4 1.79 4 4 4zm0 2c-2.67 0-8 1.34-8 4v2h16v-2c0-2.66-5.33-4-8-4z"></path>
  </symbol>
    <symbol xmlns="http://www.w3.org/2000/svg" fill="#5f6368" viewBox="0 -960 960 960" id="photo">
    <path d="M360-400h400L622-580l-92 120-62-80-108 140Zm-40 160q-33 0-56.5-23.5T240-320v-480q0-33 23.5-56.5T320-880h480q33 0 56.5 23.5T880-800v480q0 33-23.5 56.5T800-240H320Zm0-80h480v-480H320v480ZM160-80q-33 0-56.5-23.5T80-160v-560h80v560h560v80H160Zm160-720v480-480Z"></path>
  </symbol>
  <symbol xmlns="http://www.w3.org/2000/svg" fill="#5f6368" viewBox="0 0 24 24" id="smile">
    <circle cx="12" cy="12" r="10" stroke="black" stroke-width="2" fill="none"></circle>
    <path d="M8 14c1.33 2 4.67 2 6 0" stroke="black" stroke-width="2" fill="none"></path>
    <circle cx="9" cy="9" r="1" fill="black"></circle>
    <circle cx="15" cy="9" r="1" fill="black"></circle>
  </symbol>
  <symbol xmlns="http://www.w3.org/2000/svg" fill="#5f6368" viewBox="0 0 24 24" id="pencil">
    <path d="M3 17.25V21h3.75L17.81 9.94l-3.75-3.75L3 17.25zm2.41-1.41L14.06 7.2l1.41 1.41L6.83 17.25H5.41v-1.41zM18.37 3.63l2 2c.39.39.39 1.03 0 1.41l-1.41 1.41-3.75-3.75 1.41-1.41c.39-.39 1.03-.39 1.41 0z"></path>
  </symbol>
  <symbol xmlns="http://www.w3.org/2000/svg" fill="#5f6368" viewBox="0 0 24 24" id="folder">
    <path d="M10 4H4c-1.1 0-2 .9-2 2v12c0 1.1.9 2 2 2h16c1.1 0 2-.9 2-2V8c0-1.1-.9-2-2-2h-8l-2-2z"></path>
  </symbol>
  <symbol xmlns="http://www.w3.org/2000/svg" fill="#5f6368" viewBox="0 0 24 24" id="warning">
    <path d="M1 21h22L12 2 1 21zM12 16v2h0-2v-2h2zm0-6v4h0-2v-4h2z"></path>
  </symbol>
</svg>
